<svg width="21" height="25" viewBox="0 0 21 25" fill="none" xmlns="http://www.w3.org/2000/svg">
<g clip-path="url(#clip0)">
<path d="M20.3483 20.073C19.6276 19.773 19.3188 19.3746 19.3486 18.7795C19.3792 18.0852 18.9923 17.577 18.8085 17.3762C18.9197 16.9451 19.2438 15.4525 18.8085 14.1557C18.3409 12.768 16.9123 10.6484 15.4377 8.56557C14.8339 7.70984 14.8057 6.78033 14.7726 5.70328C14.7412 4.67623 14.7057 3.51148 14.1421 2.21721C13.5302 0.808197 12.3008 0 10.7698 0C9.85959 0 8.9244 0.289344 8.20526 0.793443C6.73233 1.82705 6.92743 4.08033 7.05561 5.57131C7.07335 5.77541 7.09028 5.96803 7.09915 6.13279C7.18461 7.59344 7.10721 8.36311 7.00482 8.59672C6.93872 8.74918 6.61382 9.18443 6.26957 9.64508C5.91403 10.1213 5.51012 10.6615 5.17958 11.1648C4.78535 11.7705 4.46689 12.6959 4.15892 13.591C3.93399 14.2459 3.72116 14.8648 3.51396 15.2344C3.12134 15.9459 3.21889 16.609 3.30032 16.9156C3.15198 17.0205 2.93672 17.227 2.75532 17.6172C2.53604 18.0926 2.09182 18.3484 1.1671 18.5287C0.742232 18.6172 0.44958 18.7984 0.296402 19.0689C0.0738893 19.4615 0.19482 19.9549 0.30527 20.2926C0.468929 20.7885 0.366541 21.1025 0.181921 21.6721C0.139192 21.8033 0.0908196 21.9525 0.0416411 22.1164C-0.0357545 22.3754 -0.00753733 22.6115 0.12468 22.8164C0.473766 23.359 1.49281 23.5508 2.54168 23.6762C3.1681 23.7516 3.85337 24.0066 4.51607 24.2533C5.16587 24.4943 5.83744 24.7443 6.44774 24.8197C6.54045 24.8311 6.63236 24.8377 6.72104 24.8377C7.64253 24.8377 8.05934 24.2156 8.19156 23.9607C8.52291 23.8918 9.66449 23.6721 10.8415 23.6426C12.017 23.6082 13.1537 23.8443 13.4754 23.918C13.577 24.1148 13.8439 24.5648 14.2695 24.7967C14.5033 24.927 14.829 25.0008 15.162 25.0008C15.5183 25.0008 16.1955 24.9156 16.7317 24.3418C17.2662 23.7656 18.6021 23.0303 19.5776 22.4934C19.7952 22.3738 19.9992 22.2615 20.1774 22.1598C20.7256 21.8508 21.0247 21.4098 20.9981 20.9492C20.9763 20.5656 20.7272 20.2303 20.3483 20.073ZM8.21735 19.9623C8.14883 19.4738 7.53128 18.9893 6.81537 18.4287C6.23006 17.9697 5.56656 17.45 5.38355 17.0098C5.00544 16.1016 5.30373 14.5041 5.82293 13.682C6.0793 13.2705 6.28892 12.6459 6.49127 12.0418C6.70975 11.3893 6.9363 10.7156 7.18945 10.4205C7.59013 9.95984 7.96098 9.06311 8.02628 8.35656C8.40117 8.72049 8.98406 9.18279 9.52179 9.18279C9.60483 9.18279 9.68465 9.17213 9.76204 9.15C10.1297 9.0418 10.6714 8.72377 11.1947 8.41639C11.6461 8.15164 12.2024 7.82459 12.412 7.79508C12.7708 8.31885 14.8573 13.0123 15.0701 14.5197C15.2386 15.7123 15.0604 16.6984 14.9709 17.0844C14.8992 17.0746 14.8129 17.0664 14.7226 17.0664C14.1413 17.0664 13.9874 17.3885 13.9479 17.5811C13.8447 18.0811 13.8342 19.6811 13.8326 20.0402C13.6221 20.3115 12.5596 21.5893 11.0342 21.8197C10.4126 21.9115 9.83299 21.9582 9.30976 21.9582C8.86312 21.9582 8.57773 21.9229 8.45922 21.9049L7.69252 21.0131C7.99484 20.8598 8.29717 20.5393 8.21735 19.9623ZM9.19044 5.2582C9.16626 5.26885 9.14288 5.27951 9.1195 5.2918C9.11708 5.23934 9.11143 5.18525 9.10337 5.13197C9.01953 4.64262 8.70027 4.28689 8.34393 4.28689C8.31732 4.28689 8.29072 4.28934 8.2617 4.29344C8.04967 4.32951 7.88359 4.49098 7.79249 4.72049C7.8723 4.21721 8.15286 3.84426 8.48582 3.84426C8.87683 3.84426 9.20737 4.38033 9.20737 5.01393C9.20737 5.09344 9.20173 5.17295 9.19044 5.2582ZM12.2282 5.63607C12.2637 5.52049 12.283 5.39508 12.283 5.26475C12.283 4.69016 11.9243 4.23934 11.4664 4.23934C11.0189 4.23934 10.6545 4.69918 10.6545 5.26475C10.6545 5.30328 10.6561 5.3418 10.6602 5.38033C10.6368 5.37131 10.6134 5.36229 10.5908 5.35328C10.5392 5.19426 10.5134 5.02951 10.5134 4.86066C10.5134 4.17295 10.9455 3.61393 11.4768 3.61393C12.0081 3.61393 12.4403 4.17295 12.4403 4.86066C12.4403 5.1459 12.3629 5.41885 12.2282 5.63607ZM11.8364 6.97377C11.8283 7.0082 11.8122 7.02377 11.6324 7.11885C11.5413 7.16721 11.4285 7.22705 11.2866 7.31475L11.1922 7.37295C10.8117 7.60738 9.92167 8.15656 9.67981 8.18852C9.51534 8.21066 9.41376 8.1459 9.18561 7.98852C9.13401 7.95328 9.07919 7.91475 9.02114 7.87705C8.60917 7.60246 8.34474 7.3 8.31491 7.18115C8.44954 7.07541 8.7817 6.81148 8.95181 6.65492C9.29767 6.32787 9.64514 6.1082 9.81767 6.1082C9.82654 6.1082 9.8346 6.10902 9.84347 6.11066C10.0458 6.14672 10.5449 6.34918 10.9093 6.49754C11.0778 6.56557 11.2237 6.62459 11.3253 6.66229C11.6486 6.77541 11.8162 6.91967 11.8364 6.97377ZM14.7347 22.25C14.9169 21.4156 15.1265 20.2803 15.0927 19.6107C15.0846 19.459 15.0717 19.2934 15.0588 19.1328C15.0346 18.8336 14.9991 18.3893 15.0362 18.2574C15.0435 18.2541 15.0515 18.2508 15.0604 18.2484C15.062 18.6311 15.1435 19.3943 15.7441 19.6607C15.9231 19.7402 16.1278 19.7803 16.352 19.7803C16.9534 19.7803 17.6209 19.4803 17.8934 19.2025C18.0547 19.0385 18.1901 18.8385 18.2844 18.6803C18.3054 18.7418 18.3175 18.823 18.311 18.927C18.2756 19.491 18.5448 20.2402 19.0584 20.5156L19.1334 20.5557C19.3164 20.6533 19.8017 20.9123 19.8098 21.0352C19.8098 21.0352 19.8057 21.05 19.7783 21.0754C19.6566 21.1885 19.2285 21.4107 18.8141 21.6254C18.0796 22.0066 17.2468 22.4385 16.8728 22.8385C16.3463 23.4016 15.7505 23.7803 15.391 23.7803C15.3474 23.7803 15.3079 23.7746 15.2733 23.7631C14.8839 23.6402 14.5622 23.0672 14.7347 22.25ZM1.42347 20.1213C1.38397 19.932 1.35253 19.782 1.38558 19.6377C1.40977 19.5303 1.93138 19.4156 2.1539 19.3664C2.4667 19.2975 2.7908 19.2262 3.00202 19.0951C3.28822 18.9189 3.44302 18.5934 3.58007 18.3066C3.67923 18.0992 3.78162 17.8844 3.90255 17.8139C3.909 17.8098 3.91948 17.8049 3.93964 17.8049C4.16779 17.8049 4.64587 18.2918 4.92159 18.7279C4.99173 18.8377 5.12073 19.0582 5.27068 19.3131C5.71893 20.0754 6.33245 21.1189 6.65251 21.4689C6.94113 21.7836 7.40873 22.3877 7.29345 22.9066C7.2096 23.309 6.76135 23.6361 6.65574 23.7082C6.61704 23.7172 6.56947 23.7213 6.51385 23.7213C5.90033 23.7213 4.68699 23.2025 4.03477 22.9238L3.93802 22.8828C3.57362 22.7279 2.97945 22.6295 2.40462 22.5352C1.94751 22.4598 1.32109 22.3566 1.21709 22.2639C1.13324 22.168 1.23079 21.8557 1.31706 21.5803C1.37913 21.3828 1.44282 21.1779 1.4783 20.9639C1.52909 20.6229 1.47023 20.3443 1.42347 20.1213Z" fill="white"/>
</g>
<defs>
<clipPath id="clip0">
<rect width="21" height="25" fill="white"/>
</clipPath>
</defs>
</svg>
