<svg width="45" height="44" viewBox="0 0 45 44" fill="none" xmlns="http://www.w3.org/2000/svg">
<g clip-path="url(#clip0)">
<path d="M18.4629 29.7426V29.4926H18.2129H17.1624C16.7233 29.4926 16.3618 29.1311 16.3618 28.6804V13.809C16.3618 13.3583 16.7233 12.9968 17.1624 12.9968H18.2129H18.4629V12.7468V11.6846C18.4629 11.2338 18.8244 10.8723 19.2635 10.8723C19.7026 10.8723 20.0641 11.2338 20.0641 11.6846V12.7468V12.9968H20.3141H22.4152H22.6652V12.7468V11.6846C22.6652 11.2338 23.0267 10.8723 23.4658 10.8723C23.9049 10.8723 24.2663 11.2338 24.2663 11.6846V12.7999V13.0231L24.4881 13.0483C26.7203 13.3017 28.4686 15.2016 28.4686 17.5269C28.4686 18.7466 27.9848 19.8501 27.2075 20.6644L26.9893 20.893L27.2619 21.0528C28.6045 21.8393 29.5192 23.2867 29.5192 24.9625C29.5192 27.4634 27.5083 29.4926 25.0416 29.4926H24.5163H24.2663V29.7426V30.8048C24.2663 31.2556 23.9049 31.6171 23.4658 31.6171C23.0267 31.6171 22.6652 31.2556 22.6652 30.8048V29.7426V29.4926H22.4152H20.3141H20.0641V29.7426V30.8048C20.0641 31.2556 19.7026 31.6171 19.2635 31.6171C18.8244 31.6171 18.4629 31.2556 18.4629 30.8048V29.7426ZM17.9629 27.6181V27.8681H18.2129H25.0416C26.6301 27.8681 27.918 26.5619 27.918 24.9625C27.918 23.3632 26.6301 22.0569 25.0416 22.0569H23.9911H18.2129H17.9629V22.3069V27.6181ZM18.2129 14.6213H17.9629V14.8713V20.1825V20.4325H18.2129H23.9911C25.5795 20.4325 26.8675 19.1262 26.8675 17.5269C26.8675 15.9275 25.5795 14.6213 23.9911 14.6213H18.2129Z" fill="black" stroke="white" stroke-width="0.5"/>
</g>
<path d="M34.0617 4.74518L34.0616 4.74516C30.6781 2.44527 26.7182 1.22904 22.61 1.22904C11.364 1.22904 2.21488 10.3781 2.21488 21.6241C2.21488 32.8701 11.364 42.0184 22.61 42.0184C33.856 42.0184 43.0051 32.8693 43.0051 21.6233C43.0051 15.9879 40.7568 10.7426 36.6759 6.85458C36.4557 6.64469 36.4471 6.29545 36.6574 6.07413C36.8673 5.85404 37.2165 5.84558 37.4378 6.05584C39.5231 8.04295 41.164 10.3834 42.3145 13.0111C43.5053 15.7319 44.1091 18.6299 44.1091 21.6241C44.1091 27.367 41.8728 32.7657 37.8122 36.8264C33.7516 40.887 28.3528 43.1233 22.61 43.1233C16.8671 43.1233 11.4684 40.887 7.40773 36.8264C3.34709 32.7657 1.11084 27.367 1.11084 21.6241C1.11084 15.8813 3.34709 10.4825 7.40773 6.42189C11.4684 2.36125 16.8671 0.125 22.61 0.125C26.9402 0.125 31.1147 1.40652 34.683 3.83182C34.9351 4.00333 35.0005 4.34708 34.829 4.59915L34.9323 4.66946L34.829 4.59915C34.6575 4.85124 34.3137 4.91667 34.0617 4.74518Z" fill="black" stroke="white" stroke-width="0.25"/>
<defs>
<clipPath id="clip0">
<rect width="13.6573" height="21.2448" fill="white" transform="translate(16.1118 10.6223)"/>
</clipPath>
</defs>
</svg>
