<svg width="44" height="44" viewBox="0 0 44 44" fill="none" xmlns="http://www.w3.org/2000/svg">
<g clip-path="url(#clip0)">
<path d="M19.0722 31.7792C16.6435 31.7792 14.2377 31.109 12.1155 29.8427L10.6016 28.9394L12.3651 28.9686C12.4219 28.9714 12.5146 28.9759 12.6587 28.9759C13.3303 28.9759 15.4681 28.868 17.661 27.6355C16.0132 27.1473 14.6506 25.8773 14.09 24.2151L13.812 23.3922L14.569 23.5879C13.356 22.6589 12.5623 21.2317 12.4761 19.6417L12.4348 18.8801L13.1358 19.1854C13.2633 19.2412 13.3936 19.2906 13.5257 19.3336C12.5302 17.9438 11.9265 15.797 13.1835 13.5158L13.5294 12.8876L13.9698 13.4545C16.0792 16.1719 19.2062 17.8277 22.6157 18.0553C22.5946 17.8441 22.5808 17.6503 22.5808 17.59C22.5808 15.0683 24.5058 12.4607 27.7282 12.4607C29.0806 12.4607 30.3826 12.9955 31.3414 13.9382C32.6269 13.6374 33.8554 12.8904 33.8692 12.8822L34.9831 12.1982L34.5619 13.4335C34.3601 14.0241 34.0527 14.57 33.6582 15.0454C33.8738 14.9759 34.0848 14.8955 34.3023 14.8004L35.6409 14.1494L35.0785 15.3526C34.6142 16.3465 33.8398 17.1666 32.8792 17.6915C33.0902 20.983 31.7323 24.6549 29.2889 27.3512C27.4758 29.3535 24.2461 31.7463 19.1584 31.7783L19.0722 31.7792ZM14.1129 29.8089C15.6856 30.4855 17.3729 30.8384 19.0713 30.8384H19.152C23.8956 30.8082 26.9024 28.5828 28.5888 26.7212C30.9395 24.1255 32.2149 20.577 31.9149 17.4592L31.8837 17.1282L32.1855 16.9883C32.6645 16.7662 33.093 16.4571 33.4535 16.0813C33.0508 16.1828 32.6214 16.2587 32.125 16.3181L31.7635 16.362L31.4818 15.6498L31.8103 15.3983C32.2699 15.1295 32.6709 14.7803 32.9948 14.3707C32.4819 14.5883 31.8772 14.8013 31.2717 14.9138L31.0129 14.9613L30.8358 14.7675C30.0403 13.898 28.909 13.3997 27.7291 13.3997C25.0976 13.3997 23.525 15.53 23.525 17.589C23.525 17.7134 23.5874 18.2803 23.6094 18.4266L23.8241 19.0337L23.1424 19.019C19.4915 18.9404 16.0939 17.3458 13.7092 14.6175C12.766 17.0862 14.3506 19.0593 15.1066 19.6499L16.2132 20.5149L14.8075 20.4902C14.3671 20.4829 13.9368 20.4234 13.5193 20.3119C13.8909 21.9622 15.1993 23.288 16.8995 23.6519L18.7612 24.0505L16.9288 24.5644C16.6095 24.654 16.2471 24.6988 15.8517 24.6988C15.6663 24.6988 15.4902 24.6887 15.3268 24.6741C16.0636 25.9669 17.4362 26.8355 18.9538 26.9096L20.2806 26.9745L19.2107 27.7581C17.3757 29.0994 15.4736 29.6169 14.1129 29.8089Z" fill="black"/>
</g>
<path d="M33.8136 4.74518L33.8136 4.74516C30.43 2.44527 26.4701 1.22904 22.3619 1.22904C11.1159 1.22904 1.96684 10.3781 1.96684 21.6241C1.96684 32.8701 11.1159 42.0184 22.3619 42.0184C33.6079 42.0184 42.757 32.8693 42.757 21.6233C42.757 15.9879 40.5088 10.7426 36.4278 6.85458C36.2076 6.64469 36.1991 6.29545 36.4094 6.07413C36.6193 5.85404 36.9684 5.84558 37.1897 6.05584C39.2751 8.04295 40.9159 10.3834 42.0664 13.0111C43.2572 15.7319 43.861 18.6299 43.861 21.6241C43.861 27.367 41.6248 32.7657 37.5642 36.8264C33.5035 40.887 28.1048 43.1233 22.3619 43.1233C16.6191 43.1233 11.2203 40.887 7.15969 36.8264C3.09904 32.7657 0.862793 27.367 0.862793 21.6241C0.862793 15.8813 3.09904 10.4825 7.15969 6.42189C11.2203 2.36125 16.6191 0.125 22.3619 0.125C26.6922 0.125 30.8666 1.40652 34.4349 3.83182C34.687 4.00333 34.7524 4.34708 34.5809 4.59915L34.6843 4.66946L34.5809 4.59915C34.4094 4.85124 34.0657 4.91667 33.8136 4.74518Z" fill="black" stroke="white" stroke-width="0.25"/>
<defs>
<clipPath id="clip0">
<rect width="25.0385" height="19.7273" fill="white" transform="translate(10.6016 12.1399)"/>
</clipPath>
</defs>
</svg>
