<svg width="691" height="814" viewBox="0 0 691 814" fill="none" xmlns="http://www.w3.org/2000/svg">
<path opacity="0.3" fill-rule="evenodd" clip-rule="evenodd" d="M124.22 516.509C241.897 516.509 337.293 421.113 337.293 303.436C337.293 185.759 241.897 90.3633 124.22 90.3633C6.54295 90.3633 -88.853 185.759 -88.853 303.436C-88.853 421.113 6.54295 516.509 124.22 516.509Z" stroke="white"/>
<path opacity="0.2" fill-rule="evenodd" clip-rule="evenodd" d="M124.22 622.275C300.31 622.275 443.059 479.526 443.059 303.436C443.059 127.346 300.31 -15.4028 124.22 -15.4028C-51.8705 -15.4028 -194.62 127.346 -194.62 303.436C-194.62 479.526 -51.8705 622.275 124.22 622.275Z" stroke="white"/>
<path opacity="0.2" fill-rule="evenodd" clip-rule="evenodd" d="M124.22 729.068C359.29 729.068 549.852 538.506 549.852 303.436C549.852 68.3658 359.29 -122.196 124.22 -122.196C-110.851 -122.196 -301.413 68.3658 -301.413 303.436C-301.413 538.506 -110.851 729.068 124.22 729.068Z" stroke="white"/>
<path opacity="0.04" fill-rule="evenodd" clip-rule="evenodd" d="M176.076 813.271C459.635 813.271 689.505 583.401 689.505 299.842C689.505 16.2834 459.635 -213.586 176.076 -213.586C-107.483 -213.586 -337.353 16.2834 -337.353 299.842C-337.353 583.401 -107.483 813.271 176.076 813.271Z" stroke="white"/>
<path opacity="0.6" fill-rule="evenodd" clip-rule="evenodd" d="M123 435C200.872 435 264 371.648 264 293.5C264 215.352 200.872 152 123 152C45.1279 152 -18 215.352 -18 293.5C-18 371.648 45.1279 435 123 435Z" fill="url(#paint0_linear)"/>
<defs>
<linearGradient id="paint0_linear" x1="17.2103" y1="163.609" x2="17.2103" y2="389.852" gradientUnits="userSpaceOnUse">
<stop stop-color="#272727"/>
<stop offset="1" stop-color="#1A1A1A"/>
</linearGradient>
</defs>
</svg>
