<svg width="21" height="26" viewBox="0 0 21 26" fill="none" xmlns="http://www.w3.org/2000/svg">
<path d="M15.4587 0C15.5153 0 15.5831 0 15.6397 0C15.7867 1.83838 15.0969 3.20861 14.2487 4.1906C13.4232 5.1726 12.2923 6.13175 10.4604 5.98331C10.336 4.1906 11.0258 2.91173 11.8739 1.92973C12.6542 1.00483 14.0791 0.182697 15.4587 0Z" fill="white"/>
<path d="M21 19.0918C21 19.1146 21 19.126 21 19.1489C20.4911 20.7246 19.7561 22.072 18.8514 23.3281C18.0372 24.4699 17.0307 25.9886 15.2439 25.9886C13.6947 25.9886 12.6769 24.9837 11.0824 24.9609C9.40872 24.9381 8.48142 25.8059 6.95477 26.0228C6.78514 26.0228 6.6042 26.0228 6.43457 26.0228C5.31502 25.863 4.39903 24.9609 3.74313 24.1502C1.79806 21.7523 0.282714 18.6579 0 14.6956C0 14.3074 0 13.9192 0 13.531C0.124394 10.6992 1.48142 8.39262 3.29079 7.2736C4.25202 6.67984 5.56381 6.17742 7.02262 6.40579C7.6559 6.50856 8.28918 6.72551 8.8546 6.93104C9.38611 7.13658 10.0533 7.50197 10.6866 7.49055C11.1163 7.47913 11.5347 7.25076 11.9758 7.0909C13.2423 6.63416 14.475 6.09749 16.1034 6.3487C18.0598 6.64558 19.4507 7.52481 20.3102 8.88361C18.6478 9.94554 17.3473 11.5556 17.5622 14.296C17.7658 16.7738 19.2019 18.224 21 19.0918Z" fill="white"/>
</svg>
