<svg width="44" height="44" viewBox="0 0 44 44" fill="none" xmlns="http://www.w3.org/2000/svg">
<g clip-path="url(#clip0)">
<path d="M33.0479 23.741C33.08 25.4052 33.0165 26.9809 32.8625 28.3131C30.4244 30.1518 27.0085 31.2413 24.6373 31.5315L23.4334 28.3971C25.1011 28.1433 27.6416 27.4319 29.7023 25.4579C29.879 25.288 29.9151 25.0238 29.7886 24.8155C29.6621 24.6073 29.4065 24.5103 29.1689 24.5786C28.9253 24.6489 28.6014 24.7719 28.258 24.9028C27.8705 25.0498 27.4315 25.2165 27.1845 25.2737C25.2149 25.7293 23.2185 25.9604 21.2496 25.9604C21.2482 25.9604 21.2449 25.9604 21.2449 25.9604H21.2409C19.2726 25.9604 17.2755 25.7293 15.3059 25.2737C15.0589 25.2165 14.6199 25.0498 14.2324 24.9028C13.9025 24.7771 13.5899 24.6587 13.3496 24.5871C13.1261 24.5207 12.8765 24.5845 12.7359 24.7654C12.57 24.9796 12.5961 25.2744 12.7875 25.4579C14.8555 27.4384 17.3913 28.1517 19.0557 28.4056L17.8531 31.5309C15.4819 31.2406 12.066 30.1518 9.6279 28.3125C9.1186 23.9037 9.59779 16.8304 11.2729 12.7022C12.8082 12.024 15.0643 11.8313 17.1825 11.7493L13.8041 13.2723C13.5477 13.3881 13.4259 13.6765 13.525 13.9335C13.624 14.1913 13.9105 14.3312 14.1822 14.2551C16.5266 13.5964 18.9038 13.2625 21.2462 13.2625C23.5886 13.2625 25.9652 13.5964 28.3102 14.2551C28.582 14.3312 28.8684 14.1913 28.9674 13.9335C29.0665 13.6758 28.9447 13.3875 28.6884 13.2723L25.3099 11.7487C27.4282 11.8307 29.6842 12.0233 31.2195 12.7015C32.1357 14.9593 32.6939 18.0983 32.9288 21.2008C32.9495 21.4767 33.1864 21.6902 33.4715 21.6902H33.4736C33.7901 21.6902 34.0404 21.4286 34.017 21.1214C33.7694 17.8353 33.159 14.5121 32.1431 12.1151C32.0935 11.998 32.0019 11.9016 31.8847 11.845C29.7324 10.7991 26.366 10.7152 23.6609 10.6475C23.3296 10.639 23.0097 10.6312 22.7052 10.6214C22.4482 10.6143 22.2207 10.7822 22.1611 11.0256C22.1015 11.269 22.2267 11.5196 22.4596 11.6244L24.1066 12.367C23.1503 12.2622 22.1952 12.2095 21.2449 12.2095C20.2945 12.2095 19.3395 12.2622 18.3831 12.367L20.0302 11.6244C20.2637 11.5189 20.3882 11.269 20.3287 11.0256C20.2691 10.7822 20.0422 10.6143 19.7846 10.6214C19.48 10.6312 19.1601 10.639 18.8289 10.6475C16.1251 10.7152 12.7587 10.7991 10.6077 11.845C10.4906 11.9016 10.3989 11.998 10.3494 12.1151C8.49284 16.4952 7.99224 23.9642 8.58052 28.6548C8.59725 28.7909 8.66819 28.9145 8.77795 29.0011C11.5567 31.1801 15.4953 32.39 18.1656 32.623C18.1817 32.6243 18.1984 32.6249 18.2145 32.6249C18.438 32.6249 18.6415 32.4902 18.7211 32.2832L20.3106 28.1543C20.3889 27.9519 20.3327 27.7183 20.1547 27.5692C20.0677 27.4963 19.9566 27.4566 19.8421 27.4449C19.0082 27.3623 17.7453 27.1442 16.4155 26.5774C18.0237 26.867 19.6413 27.0128 21.2422 27.0128H21.2462H21.2502C22.8437 27.0128 24.4546 26.8676 26.0548 26.5813C24.7351 27.1377 23.4815 27.3532 22.651 27.4358C22.5365 27.4469 22.4254 27.4866 22.3384 27.5595C22.1604 27.7085 22.1042 27.9422 22.1818 28.1452L23.7713 32.2839C23.851 32.4909 24.0538 32.6262 24.278 32.6262C24.294 32.6262 24.3101 32.6256 24.3268 32.6243C26.9971 32.3913 30.9351 31.1807 33.7145 29.0024C33.8242 28.9165 33.8952 28.7922 33.9119 28.6561C34.0926 27.2171 34.1703 25.5158 34.1381 23.7228C34.1328 23.4338 33.8905 23.2028 33.5934 23.2028C33.2875 23.2015 33.0426 23.4449 33.0479 23.741Z" fill="black"/>
<path d="M16.1952 16.7013C14.3058 16.7013 12.7686 18.1963 12.7686 20.0336C12.7686 21.8709 14.3058 23.3659 16.1952 23.3659C18.0845 23.3659 19.6218 21.8709 19.6218 20.0336C19.6218 18.1963 18.0845 16.7013 16.1952 16.7013ZM16.1952 22.3135C14.9021 22.3135 13.8507 21.291 13.8507 20.0336C13.8507 18.7762 14.9028 17.7537 16.1952 17.7537C17.4875 17.7537 18.5396 18.7762 18.5396 20.0336C18.5396 21.291 17.4875 22.3135 16.1952 22.3135Z" fill="black"/>
<path d="M26.2943 16.7013C24.405 16.7013 22.8677 18.1963 22.8677 20.0336C22.8677 21.8709 24.405 23.3659 26.2943 23.3659C28.1836 23.3659 29.7209 21.8709 29.7209 20.0336C29.7209 18.1963 28.1843 16.7013 26.2943 16.7013ZM26.2943 22.3135C25.0013 22.3135 23.9499 21.291 23.9499 20.0336C23.9499 18.7762 25.0019 17.7537 26.2943 17.7537C27.5873 17.7537 28.6387 18.7762 28.6387 20.0336C28.6387 21.291 27.5873 22.3135 26.2943 22.3135Z" fill="black"/>
</g>
<path d="M33.0758 4.74518L33.0758 4.74516C29.6923 2.44527 25.7323 1.22904 21.6241 1.22904C10.3781 1.22904 1.22904 10.3781 1.22904 21.6241C1.22904 32.8701 10.3781 42.0184 21.6241 42.0184C32.8701 42.0184 42.0192 32.8693 42.0192 21.6233C42.0192 15.9879 39.771 10.7426 35.69 6.85458C35.4698 6.64469 35.4613 6.29545 35.6716 6.07413C35.8815 5.85404 36.2306 5.84558 36.4519 6.05584C38.5373 8.04295 40.1781 10.3834 41.3286 13.0111C42.5194 15.7319 43.1233 18.6299 43.1233 21.6241C43.1233 27.367 40.887 32.7657 36.8264 36.8264C32.7657 40.887 27.367 43.1233 21.6241 43.1233C15.8813 43.1233 10.4825 40.887 6.42189 36.8264C2.36125 32.7657 0.125 27.367 0.125 21.6241C0.125 15.8813 2.36125 10.4825 6.42189 6.42189C10.4825 2.36125 15.8813 0.125 21.6241 0.125C25.9544 0.125 30.1288 1.40652 33.6971 3.83182C33.9492 4.00333 34.0146 4.34708 33.8432 4.59915L33.9465 4.66946L33.8431 4.59915C33.6716 4.85124 33.3279 4.91667 33.0758 4.74518Z" fill="black" stroke="white" stroke-width="0.25"/>
<defs>
<clipPath id="clip0">
<rect width="25.7972" height="22.0035" fill="white" transform="translate(8.34619 10.6224)"/>
</clipPath>
</defs>
</svg>
