<svg width="44" height="45" viewBox="0 0 44 45" fill="none" xmlns="http://www.w3.org/2000/svg">
<g clip-path="url(#clip0)">
<path d="M21.9556 20.9884C22.232 20.9884 22.4561 20.7643 22.4561 20.4878C22.4561 20.2114 22.232 19.9873 21.9556 19.9873C21.6792 19.9873 21.4551 20.2114 21.4551 20.4878C21.4551 20.7643 21.6792 20.9884 21.9556 20.9884Z" fill="black"/>
<path d="M27.4579 24.243C27.3968 24.1823 27.3212 24.1383 27.2382 24.1151L23.6469 23.1201C23.5606 23.0964 23.4695 23.0962 23.3831 23.1196C23.2967 23.1431 23.2182 23.1893 23.1557 23.2534C23.0932 23.3175 23.0491 23.3973 23.0279 23.4842C23.0067 23.5712 23.0092 23.6623 23.0352 23.748L24.099 27.2517C24.1231 27.3304 24.1661 27.402 24.2242 27.4603L29.1084 32.3343C29.5361 32.7621 30.1162 33.0024 30.7211 33.0024C31.326 33.0024 31.9061 32.7621 32.3338 32.3343C32.7615 31.9066 33.0018 31.3264 33.0018 30.7215C33.0018 30.1166 32.7615 29.5364 32.3338 29.1087L27.4579 24.243ZM28.6597 30.4718L25.0194 26.8391L24.2564 24.3281L26.844 25.0449L30.4687 28.6632L28.6597 30.4718ZM31.6242 31.6258C31.5055 31.7447 31.3644 31.839 31.2092 31.9033C31.0539 31.9677 30.8875 32.0008 30.7195 32.0008C30.5514 32.0008 30.385 31.9677 30.2298 31.9033C30.0745 31.839 29.9335 31.7447 29.8147 31.6258L29.3698 31.1809L31.1788 29.3717L31.6237 29.8167C31.7425 29.9354 31.8367 30.0765 31.901 30.2317C31.9653 30.3869 31.9984 30.5532 31.9984 30.7212C31.9984 30.8892 31.9653 31.0556 31.901 31.2108C31.8367 31.366 31.7425 31.507 31.6237 31.6258H31.6242Z" fill="black"/>
<path d="M25.9595 20.9884C26.2359 20.9884 26.46 20.7643 26.46 20.4878C26.46 20.2114 26.2359 19.9873 25.9595 19.9873C25.6831 19.9873 25.459 20.2114 25.459 20.4878C25.459 20.7643 25.6831 20.9884 25.9595 20.9884Z" fill="black"/>
<path d="M22.5183 29.4382H22.515C22.3431 29.4454 22.1707 29.4493 22.0017 29.4493C20.5481 29.4548 19.1074 29.1759 17.7608 28.6284C17.6377 28.5781 17.4997 28.5781 17.3766 28.6284L12.4428 30.7112L14.1801 26.5957C14.2169 26.5085 14.2283 26.4126 14.2128 26.3192C14.1974 26.2257 14.1558 26.1386 14.0928 26.0679C12.7259 24.5324 12.0029 22.6916 12.0029 20.7451C12.0029 15.9222 16.4885 11.998 22.0017 11.998C27.5149 11.998 32.0004 15.9222 32.0004 20.7451C32.0004 21.8979 31.7185 23.0531 31.1624 24.1781C31.1331 24.2371 31.1158 24.3012 31.1114 24.3668C31.107 24.4325 31.1155 24.4983 31.1365 24.5606C31.179 24.6865 31.2697 24.7904 31.3887 24.8494C31.5077 24.9084 31.6453 24.9177 31.7712 24.8753C31.897 24.8328 32.0009 24.7421 32.0599 24.6231C32.685 23.3589 33.0014 22.0542 33.0014 20.7462C33.0014 15.371 28.0671 10.998 22.0017 10.998C15.9363 10.998 11.002 15.3716 11.002 20.7467C11.002 22.7583 11.6899 24.6842 12.9917 26.316L13.1363 26.4973L11.0414 31.4597C11.0029 31.5514 10.9926 31.6525 11.0118 31.7501C11.031 31.8477 11.0788 31.9374 11.1491 32.0077C11.2195 32.0779 11.3092 32.1257 11.4068 32.1448C11.5044 32.1639 11.6054 32.1535 11.6971 32.1149L17.5756 29.6361L17.7208 29.6918C19.2663 30.2659 20.9121 30.5212 22.5589 30.442C22.6578 30.4375 22.7532 30.4038 22.8329 30.3451C22.9127 30.2865 22.9733 30.2054 23.007 30.1123C23.0407 30.0192 23.046 29.9182 23.0222 29.822C22.9985 29.7259 22.9468 29.6389 22.8736 29.5722C22.8264 29.5272 22.7706 29.4922 22.7095 29.4692C22.6485 29.4461 22.5835 29.4356 22.5183 29.4382Z" fill="black"/>
<path d="M17.9517 20.9884C18.2281 20.9884 18.4522 20.7643 18.4522 20.4878C18.4522 20.2114 18.2281 19.9873 17.9517 19.9873C17.6752 19.9873 17.4512 20.2114 17.4512 20.4878C17.4512 20.7643 17.6752 20.9884 17.9517 20.9884Z" fill="black"/>
</g>
<path d="M33.3102 5.50397L33.3102 5.50394C29.9266 3.20406 25.9667 1.98783 21.8585 1.98783C10.6125 1.98783 1.46342 11.1369 1.46342 22.3829C1.46342 33.6289 10.6125 42.7772 21.8585 42.7772C33.1045 42.7772 42.2536 33.6281 42.2536 22.3821C42.2536 16.7467 40.0053 11.5014 35.9244 7.61337C35.7042 7.40352 35.6957 7.05439 35.9058 6.83306C36.1157 6.61288 36.4648 6.60433 36.6862 6.8145C38.7716 8.80165 40.4125 11.1421 41.563 13.7699C42.7538 16.4907 43.3576 19.3887 43.3576 22.3829C43.3576 28.1258 41.1214 33.5245 37.0607 37.5852C33.0001 41.6458 27.6014 43.882 21.8585 43.882C16.1156 43.882 10.7169 41.6458 6.65627 37.5852C2.59562 33.5245 0.359375 28.1258 0.359375 22.3829C0.359375 16.6401 2.59562 11.2413 6.65627 7.18068C10.7169 3.12004 16.1156 0.883789 21.8585 0.883789C26.1888 0.883789 30.3632 2.16531 33.9315 4.59061C34.1836 4.76212 34.249 5.10587 34.0775 5.35794C33.906 5.61003 33.5623 5.67546 33.3102 5.50397Z" fill="black" stroke="white" stroke-width="0.25"/>
<defs>
<clipPath id="clip0">
<rect width="22" height="22" fill="white" transform="translate(11 11)"/>
</clipPath>
</defs>
</svg>
