<svg width="43" height="44" viewBox="0 0 43 44" fill="none" xmlns="http://www.w3.org/2000/svg">
<path d="M32.4976 4.74577L32.4976 4.74574C29.173 2.44557 25.2818 1.22904 21.2448 1.22904C10.1928 1.22904 1.20529 10.3802 1.20529 21.6241C1.20529 32.868 10.1928 42.0184 21.2448 42.0184C32.2968 42.0184 41.2842 32.8672 41.2842 21.6233C41.2842 15.9886 39.0757 10.7436 35.0662 6.85534C34.8498 6.6454 34.8413 6.29508 35.048 6.07346C35.2532 5.85427 35.5937 5.84589 35.81 6.05495C37.8587 8.04198 39.4708 10.3824 40.6012 13.0104C41.7712 15.7314 42.3645 18.6296 42.3645 21.6241C42.3645 27.3677 40.1672 32.7667 36.178 36.8271C32.1888 40.8876 26.8856 43.1233 21.2448 43.1233C15.604 43.1233 10.3007 40.8876 6.31156 36.8271C2.32231 32.7667 0.125 27.3677 0.125 21.6241C0.125 15.8806 2.32231 10.4816 6.31156 6.42111C10.3007 2.3607 15.604 0.125 21.2448 0.125C25.4981 0.125 29.5986 1.40622 33.1039 3.83124C33.3509 4.00231 33.4161 4.34696 33.247 4.6C33.0787 4.85176 32.7433 4.91588 32.4976 4.74577Z" fill="black" stroke="white" stroke-width="0.25"/>
<path d="M30.3497 11.1901C30.3382 10.7755 29.8982 10.5018 29.5282 10.6755L18.4071 15.914C18.1179 16.0505 17.9924 16.3986 18.1273 16.6913C18.2622 16.984 18.6062 17.111 18.8955 16.9753L25.7558 13.744L22.4205 16.476L14.7667 22.7458L10.5803 20.8926L16.4466 18.1292C16.7359 17.9927 16.8614 17.6446 16.7265 17.3519C16.5916 17.0592 16.2476 16.9322 15.9583 17.068L9.64405 20.0423C9.30864 20.2007 9.09658 20.5467 9.10524 20.9204C9.11389 21.2868 9.33245 21.6167 9.66424 21.7634L14.3383 23.8327L15.7073 32.144C15.7917 32.6578 16.4791 32.8046 16.7611 32.3688L20.6446 26.3712L27.9882 29.839C28.5768 30.1171 29.2764 29.6923 29.3147 29.0383L30.349 11.2397C30.3497 11.2237 30.3497 11.2069 30.3497 11.1901ZM20.2255 24.8822L19.0015 24.3042L25.0222 17.4731L24.1516 18.8183L20.2255 24.8822ZM18.4511 25.3355L19.585 25.8713L17.6058 28.9288L18.4511 25.3355ZM24.5974 16.1972L17.6209 24.1122C17.5582 24.1837 17.5113 24.2728 17.4896 24.3662L16.3767 29.0967L15.4823 23.664L24.5974 16.1972ZM28.1793 28.6383L21.2844 25.3822L29.0673 13.3623L28.1793 28.6383Z" fill="black"/>
</svg>
